# xmcd CD database file
#
# Track frame offsets:
#	151
#	34885
#	36000
#	90323
#	91089
#	134243
#	135351
#	189595
#	190106
#	265218
#	287167
#	288733
#
# Disc length: 4276 seconds
#
# Revision: 0
# Processed by: cddbd v1.5.1PL2 Copyright (c) Steve Scherf et al.
# Submitted via: CDex 1.51
#
DISCID=ae10b20c
DTITLE=Abdullah Ibrahim - Ekapa Lodumo
DYEAR=1900
DGENRE=Jazz
TTITLE0=Abdullah Ibrahim - Kramat
TTITLE1=Abdullah Ibrahim - Announcement
TTITLE2=Abdullah Ibrahim - Mindif
TTITLE3=Abdullah Ibrahim - Announcement
TTITLE4=Abdullah Ibrahim - Black and Brown Cherries
TTITLE5=Abdullah Ibrahim - Announcement
TTITLE6=Abdullah Ibrahim - Pule
TTITLE7=Abdullah Ibrahim - Announcement
TTITLE8=Abdullah Ibrahim - African Market
TTITLE9=Abdullah Ibrahim - Whoza Mtwana
TTITLE10=Abdullah Ibrahim - Announcement
TTITLE11=Abdullah Ibrahim - Duke
EXTD=
EXTT0=
EXTT1=
EXTT2=
EXTT3=
EXTT4=
EXTT5=
EXTT6=
EXTT7=
EXTT8=
EXTT9=
EXTT10=
EXTT11=
PLAYORDER=
